SolidWorks IGES file using analytic representation for surfaces         S      1
1H,,1H;,3HMat,64HC:\Users\froui\Desktop\CFA\Système Numérique\Projet ACEG      1
R\Mat.IGS,15HSolidWorks 2018,15HSolidWorks 2018,32,308,15,308,15,3HMat, G      2
1.,2,2HMM,50,0.125,13H191121.095727,1E-08,499990.,5Hfroui,,11,0,13H19112G      3
1.095727;                                                               G      4
     314       1       0       0       0                        00000200D      1
     314       0       8       1       0                               0D      2
     110       2       0       0       0                        01010000D      3
     110       0       0       1       0                               0D      4
     110       3       0       0       0                        01010000D      5
     110       0       0       1       0                               0D      6
     120       4       0       0       0                        01010000D      7
     120       0       0       1       0                               0D      8
     126       5       0       0       0                        01010500D      9
     126       0       0       2       0                               0D     10
     110       7       0       0       0                        01010000D     11
     110       0       0       1       0                               0D     12
     126       8       0       0       0                        01010500D     13
     126       0       0       2       0                               0D     14
     124      10       0       0       0                        00000000D     15
     124       0       0       3       0                               0D     16
     100      13       0       0       0              15        01010000D     17
     100       0       0       1       0                               0D     18
     126      14       0       0       0                        01010500D     19
     126       0       0       2       0                               0D     20
     110      16       0       0       0                        01010000D     21
     110       0       0       1       0                               0D     22
     126      17       0       0       0                        01010500D     23
     126       0       0       2       0                               0D     24
     124      19       0       0       0                        00000000D     25
     124       0       0       2       0                               0D     26
     100      21       0       0       0              25        01010000D     27
     100       0       0       1       0                               0D     28
     102      22       0       0       0                        01010500D     29
     102       0       0       1       0                               0D     30
     102      23       0       0       0                        01010000D     31
     102       0       0       1       0                               0D     32
     142      24       0       0       0                        00010500D     33
     142       0       0       1       0                               0D     34
     144      25       0       0       0                        00000000D     35
     144       0      -1       1       0                               0D     36
     110      26       0       0       0                        01010000D     37
     110       0       0       1       0                               0D     38
     110      27       0       0       0                        01010000D     39
     110       0       0       1       0                               0D     40
     120      28       0       0       0                        01010000D     41
     120       0       0       1       0                               0D     42
     126      29       0       0       0                        01010500D     43
     126       0       0       2       0                               0D     44
     110      31       0       0       0                        01010000D     45
     110       0       0       1       0                               0D     46
     126      32       0       0       0                        01010500D     47
     126       0       0       2       0                               0D     48
     124      34       0       0       0                        00000000D     49
     124       0       0       3       0                               0D     50
     100      37       0       0       0              49        01010000D     51
     100       0       0       1       0                               0D     52
     126      38       0       0       0                        01010500D     53
     126       0       0       2       0                               0D     54
     110      40       0       0       0                        01010000D     55
     110       0       0       1       0                               0D     56
     126      41       0       0       0                        01010500D     57
     126       0       0       2       0                               0D     58
     124      43       0       0       0                        00000000D     59
     124       0       0       3       0                               0D     60
     100      46       0       0       0              59        01010000D     61
     100       0       0       1       0                               0D     62
     102      47       0       0       0                        01010500D     63
     102       0       0       1       0                               0D     64
     102      48       0       0       0                        01010000D     65
     102       0       0       1       0                               0D     66
     142      49       0       0       0                        00010500D     67
     142       0       0       1       0                               0D     68
     144      50       0       0       0                        00000000D     69
     144       0      -1       1       0                               0D     70
     110      51       0       0       0                        01010000D     71
     110       0       0       1       0                               0D     72
     110      52       0       0       0                        01010000D     73
     110       0       0       1       0                               0D     74
     120      53       0       0       0                        01010000D     75
     120       0       0       1       0                               0D     76
     126      54       0       0       0                        01010500D     77
     126       0       0       2       0                               0D     78
     110      56       0       0       0                        01010000D     79
     110       0       0       1       0                               0D     80
     126      57       0       0       0                        01010500D     81
     126       0       0       2       0                               0D     82
     124      59       0       0       0                        00000000D     83
     124       0       0       3       0                               0D     84
     100      62       0       0       0              83        01010000D     85
     100       0       0       1       0                               0D     86
     126      63       0       0       0                        01010500D     87
     126       0       0       2       0                               0D     88
     110      65       0       0       0                        01010000D     89
     110       0       0       1       0                               0D     90
     126      66       0       0       0                        01010500D     91
     126       0       0       2       0                               0D     92
     124      68       0       0       0                        00000000D     93
     124       0       0       3       0                               0D     94
     100      71       0       0       0              93        01010000D     95
     100       0       0       1       0                               0D     96
     102      72       0       0       0                        01010500D     97
     102       0       0       1       0                               0D     98
     102      73       0       0       0                        01010000D     99
     102       0       0       1       0                               0D    100
     142      74       0       0       0                        00010500D    101
     142       0       0       1       0                               0D    102
     144      75       0       0       0                        00000000D    103
     144       0      -1       1       0                               0D    104
     110      76       0       0       0                        01010000D    105
     110       0       0       1       0                               0D    106
     110      77       0       0       0                        01010000D    107
     110       0       0       1       0                               0D    108
     120      78       0       0       0                        01010000D    109
     120       0       0       1       0                               0D    110
     126      79       0       0       0                        01010500D    111
     126       0       0       2       0                               0D    112
     110      81       0       0       0                        01010000D    113
     110       0       0       1       0                               0D    114
     126      82       0       0       0                        01010500D    115
     126       0       0       2       0                               0D    116
     124      84       0       0       0                        00000000D    117
     124       0       0       2       0                               0D    118
     100      86       0       0       0             117        01010000D    119
     100       0       0       1       0                               0D    120
     126      87       0       0       0                        01010500D    121
     126       0       0       2       0                               0D    122
     110      89       0       0       0                        01010000D    123
     110       0       0       1       0                               0D    124
     126      90       0       0       0                        01010500D    125
     126       0       0       2       0                               0D    126
     124      92       0       0       0                        00000000D    127
     124       0       0       3       0                               0D    128
     100      95       0       0       0             127        01010000D    129
     100       0       0       1       0                               0D    130
     102      96       0       0       0                        01010500D    131
     102       0       0       1       0                               0D    132
     102      97       0       0       0                        01010000D    133
     102       0       0       1       0                               0D    134
     142      98       0       0       0                        00010500D    135
     142       0       0       1       0                               0D    136
     144      99       0       0       0                        00000000D    137
     144       0      -1       1       0                               0D    138
     128     100       0       0       0                        01010000D    139
     128       0       0       2       0                               0D    140
     126     102       0       0       0                        01010500D    141
     126       0       0       2       0                               0D    142
     110     104       0       0       0                        01010000D    143
     110       0       0       1       0                               0D    144
     126     105       0       0       0                        01010500D    145
     126       0       0       2       0                               0D    146
     110     107       0       0       0                        01010000D    147
     110       0       0       1       0                               0D    148
     126     108       0       0       0                        01010500D    149
     126       0       0       2       0                               0D    150
     110     110       0       0       0                        01010000D    151
     110       0       0       1       0                               0D    152
     126     111       0       0       0                        01010500D    153
     126       0       0       2       0                               0D    154
     110     113       0       0       0                        01010000D    155
     110       0       0       1       0                               0D    156
     102     114       0       0       0                        01010500D    157
     102       0       0       1       0                               0D    158
     102     115       0       0       0                        01010000D    159
     102       0       0       1       0                               0D    160
     142     116       0       0       0                        00010500D    161
     142       0       0       1       0                               0D    162
     144     117       0       0       0                        00000000D    163
     144       0      -1       1       0                               0D    164
     128     118       0       0       0                        01010000D    165
     128       0       0       2       0                               0D    166
     126     120       0       0       0                        01010500D    167
     126       0       0       2       0                               0D    168
     110     122       0       0       0                        01010000D    169
     110       0       0       1       0                               0D    170
     126     123       0       0       0                        01010500D    171
     126       0       0       2       0                               0D    172
     110     125       0       0       0                        01010000D    173
     110       0       0       1       0                               0D    174
     126     126       0       0       0                        01010500D    175
     126       0       0       2       0                               0D    176
     110     128       0       0       0                        01010000D    177
     110       0       0       1       0                               0D    178
     126     129       0       0       0                        01010500D    179
     126       0       0       2       0                               0D    180
     110     131       0       0       0                        01010000D    181
     110       0       0       1       0                               0D    182
     102     132       0       0       0                        01010500D    183
     102       0       0       1       0                               0D    184
     102     133       0       0       0                        01010000D    185
     102       0       0       1       0                               0D    186
     142     134       0       0       0                        00010500D    187
     142       0       0       1       0                               0D    188
     144     135       0       0       0                        00000000D    189
     144       0      -1       1       0                               0D    190
     128     136       0       0       0                        01010000D    191
     128       0       0       2       0                               0D    192
     126     138       0       0       0                        01010500D    193
     126       0       0       2       0                               0D    194
     110     140       0       0       0                        01010000D    195
     110       0       0       1       0                               0D    196
     126     141       0       0       0                        01010500D    197
     126       0       0       2       0                               0D    198
     110     143       0       0       0                        01010000D    199
     110       0       0       1       0                               0D    200
     126     144       0       0       0                        01010500D    201
     126       0       0       2       0                               0D    202
     110     146       0       0       0                        01010000D    203
     110       0       0       1       0                               0D    204
     126     147       0       0       0                        01010500D    205
     126       0       0       2       0                               0D    206
     110     149       0       0       0                        01010000D    207
     110       0       0       1       0                               0D    208
     102     150       0       0       0                        01010500D    209
     102       0       0       1       0                               0D    210
     102     151       0       0       0                        01010000D    211
     102       0       0       1       0                               0D    212
     142     152       0       0       0                        00010500D    213
     142       0       0       1       0                               0D    214
     126     153       0       0       0                        01010500D    215
     126       0       0       2       0                               0D    216
     110     155       0       0       0                        01010000D    217
     110       0       0       1       0                               0D    218
     126     156       0       0       0                        01010500D    219
     126       0       0       2       0                               0D    220
     110     158       0       0       0                        01010000D    221
     110       0       0       1       0                               0D    222
     126     159       0       0       0                        01010500D    223
     126       0       0       2       0                               0D    224
     110     161       0       0       0                        01010000D    225
     110       0       0       1       0                               0D    226
     126     162       0       0       0                        01010500D    227
     126       0       0       2       0                               0D    228
     110     164       0       0       0                        01010000D    229
     110       0       0       1       0                               0D    230
     102     165       0       0       0                        01010500D    231
     102       0       0       1       0                               0D    232
     102     166       0       0       0                        01010000D    233
     102       0       0       1       0                               0D    234
     142     167       0       0       0                        00010500D    235
     142       0       0       1       0                               0D    236
     144     168       0       0       0                        00000000D    237
     144       0      -1       1       0                               0D    238
     128     169       0       0       0                        01010000D    239
     128       0       0       2       0                               0D    240
     126     171       0       0       0                        01010500D    241
     126       0       0       2       0                               0D    242
     110     173       0       0       0                        01010000D    243
     110       0       0       1       0                               0D    244
     126     174       0       0       0                        01010500D    245
     126       0       0       2       0                               0D    246
     110     176       0       0       0                        01010000D    247
     110       0       0       1       0                               0D    248
     126     177       0       0       0                        01010500D    249
     126       0       0       2       0                               0D    250
     110     179       0       0       0                        01010000D    251
     110       0       0       1       0                               0D    252
     126     180       0       0       0                        01010500D    253
     126       0       0       2       0                               0D    254
     110     182       0       0       0                        01010000D    255
     110       0       0       1       0                               0D    256
     102     183       0       0       0                        01010500D    257
     102       0       0       1       0                               0D    258
     102     184       0       0       0                        01010000D    259
     102       0       0       1       0                               0D    260
     142     185       0       0       0                        00010500D    261
     142       0       0       1       0                               0D    262
     144     186       0       0       0                        00000000D    263
     144       0      -1       1       0                               0D    264
     128     187       0       0       0                        01010000D    265
     128       0       0       2       0                               0D    266
     126     189       0       0       0                        01010500D    267
     126       0       0       2       0                               0D    268
     110     191       0       0       0                        01010000D    269
     110       0       0       1       0                               0D    270
     126     192       0       0       0                        01010500D    271
     126       0       0       2       0                               0D    272
     110     194       0       0       0                        01010000D    273
     110       0       0       1       0                               0D    274
     126     195       0       0       0                        01010500D    275
     126       0       0       2       0                               0D    276
     110     197       0       0       0                        01010000D    277
     110       0       0       1       0                               0D    278
     126     198       0       0       0                        01010500D    279
     126       0       0       2       0                               0D    280
     110     200       0       0       0                        01010000D    281
     110       0       0       1       0                               0D    282
     126     201       0       0       0                        01010500D    283
     126       0       0       2       0                               0D    284
     110     203       0       0       0                        01010000D    285
     110       0       0       1       0                               0D    286
     126     204       0       0       0                        01010500D    287
     126       0       0       2       0                               0D    288
     110     206       0       0       0                        01010000D    289
     110       0       0       1       0                               0D    290
     126     207       0       0       0                        01010500D    291
     126       0       0       2       0                               0D    292
     110     209       0       0       0                        01010000D    293
     110       0       0       1       0                               0D    294
     126     210       0       0       0                        01010500D    295
     126       0       0       2       0                               0D    296
     110     212       0       0       0                        01010000D    297
     110       0       0       1       0                               0D    298
     102     213       0       0       0                        01010500D    299
     102       0       0       1       0                               0D    300
     102     214       0       0       0                        01010000D    301
     102       0       0       1       0                               0D    302
     142     215       0       0       0                        00010500D    303
     142       0       0       1       0                               0D    304
     144     216       0       0       0                        00000000D    305
     144       0      -1       1       0                               0D    306
     128     217       0       0       0                        01010000D    307
     128       0       0       2       0                               0D    308
     126     219       0       0       0                        01010500D    309
     126       0       0       2       0                               0D    310
     110     221       0       0       0                        01010000D    311
     110       0       0       1       0                               0D    312
     126     222       0       0       0                        01010500D    313
     126       0       0       2       0                               0D    314
     110     224       0       0       0                        01010000D    315
     110       0       0       1       0                               0D    316
     126     225       0       0       0                        01010500D    317
     126       0       0       2       0                               0D    318
     110     227       0       0       0                        01010000D    319
     110       0       0       1       0                               0D    320
     126     228       0       0       0                        01010500D    321
     126       0       0       2       0                               0D    322
     110     230       0       0       0                        01010000D    323
     110       0       0       1       0                               0D    324
     102     231       0       0       0                        01010500D    325
     102       0       0       1       0                               0D    326
     102     232       0       0       0                        01010000D    327
     102       0       0       1       0                               0D    328
     142     233       0       0       0                        00010500D    329
     142       0       0       1       0                               0D    330
     144     234       0       0       0                        00000000D    331
     144       0      -1       1       0                               0D    332
     128     235       0       0       0                        01010000D    333
     128       0       0       2       0                               0D    334
     126     237       0       0       0                        01010500D    335
     126       0       0       2       0                               0D    336
     110     239       0       0       0                        01010000D    337
     110       0       0       1       0                               0D    338
     126     240       0       0       0                        01010500D    339
     126       0       0       2       0                               0D    340
     110     242       0       0       0                        01010000D    341
     110       0       0       1       0                               0D    342
     126     243       0       0       0                        01010500D    343
     126       0       0       2       0                               0D    344
     110     245       0       0       0                        01010000D    345
     110       0       0       1       0                               0D    346
     126     246       0       0       0                        01010500D    347
     126       0       0       2       0                               0D    348
     110     248       0       0       0                        01010000D    349
     110       0       0       1       0                               0D    350
     102     249       0       0       0                        01010500D    351
     102       0       0       1       0                               0D    352
     102     250       0       0       0                        01010000D    353
     102       0       0       1       0                               0D    354
     142     251       0       0       0                        00010500D    355
     142       0       0       1       0                               0D    356
     144     252       0       0       0                        00000000D    357
     144       0      -1       1       0                               0D    358
     128     253       0       0       0                        01010000D    359
     128       0       0       2       0                               0D    360
     126     255       0       0       0                        01010500D    361
     126       0       0       2       0                               0D    362
     110     257       0       0       0                        01010000D    363
     110       0       0       1       0                               0D    364
     126     258       0       0       0                        01010500D    365
     126       0       0       2       0                               0D    366
     110     260       0       0       0                        01010000D    367
     110       0       0       1       0                               0D    368
     126     261       0       0       0                        01010500D    369
     126       0       0       2       0                               0D    370
     110     263       0       0       0                        01010000D    371
     110       0       0       1       0                               0D    372
     126     264       0       0       0                        01010500D    373
     126       0       0       2       0                               0D    374
     110     266       0       0       0                        01010000D    375
     110       0       0       1       0                               0D    376
     102     267       0       0       0                        01010500D    377
     102       0       0       1       0                               0D    378
     102     268       0       0       0                        01010000D    379
     102       0       0       1       0                               0D    380
     142     269       0       0       0                        00010500D    381
     142       0       0       1       0                               0D    382
     144     270       0       0       0                        00000000D    383
     144       0      -1       1       0                               0D    384
     128     271       0       0       0                        01010000D    385
     128       0       0       2       0                               0D    386
     126     273       0       0       0                        01010500D    387
     126       0       0       2       0                               0D    388
     110     275       0       0       0                        01010000D    389
     110       0       0       1       0                               0D    390
     126     276       0       0       0                        01010500D    391
     126       0       0       2       0                               0D    392
     110     278       0       0       0                        01010000D    393
     110       0       0       1       0                               0D    394
     126     279       0       0       0                        01010500D    395
     126       0       0       2       0                               0D    396
     110     281       0       0       0                        01010000D    397
     110       0       0       1       0                               0D    398
     126     282       0       0       0                        01010500D    399
     126       0       0       2       0                               0D    400
     110     284       0       0       0                        01010000D    401
     110       0       0       1       0                               0D    402
     102     285       0       0       0                        01010500D    403
     102       0       0       1       0                               0D    404
     102     286       0       0       0                        01010000D    405
     102       0       0       1       0                               0D    406
     142     287       0       0       0                        00010500D    407
     142       0       0       1       0                               0D    408
     144     288       0       0       0                        00000000D    409
     144       0      -1       1       0                               0D    410
     128     289       0       0       0                        01010000D    411
     128       0       0       2       0                               0D    412
     126     291       0       0       0                        01010500D    413
     126       0       0      11       0                               0D    414
     124     302       0       0       0                        00000000D    415
     124       0       0       3       0                               0D    416
     100     305       0       0       0             415        01010000D    417
     100       0       0       1       0                               0D    418
     126     306       0       0       0                        01010500D    419
     126       0       0       2       0                               0D    420
     110     308       0       0       0                        01010000D    421
     110       0       0       1       0                               0D    422
     126     309       0       0       0                        01010500D    423
     126       0       0      11       0                               0D    424
     124     320       0       0       0                        00000000D    425
     124       0       0       3       0                               0D    426
     100     323       0       0       0             425        01010000D    427
     100       0       0       1       0                               0D    428
     126     324       0       0       0                        01010500D    429
     126       0       0       2       0                               0D    430
     110     326       0       0       0                        01010000D    431
     110       0       0       1       0                               0D    432
     126     327       0       0       0                        01010500D    433
     126       0       0       2       0                               0D    434
     110     329       0       0       0                        01010000D    435
     110       0       0       1       0                               0D    436
     126     330       0       0       0                        01010500D    437
     126       0       0       2       0                               0D    438
     110     332       0       0       0                        01010000D    439
     110       0       0       1       0                               0D    440
     126     333       0       0       0                        01010500D    441
     126       0       0       2       0                               0D    442
     110     335       0       0       0                        01010000D    443
     110       0       0       1       0                               0D    444
     126     336       0       0       0                        01010500D    445
     126       0       0       2       0                               0D    446
     110     338       0       0       0                        01010000D    447
     110       0       0       1       0                               0D    448
     126     339       0       0       0                        01010500D    449
     126       0       0      11       0                               0D    450
     124     350       0       0       0                        00000000D    451
     124       0       0       3       0                               0D    452
     100     353       0       0       0             451        01010000D    453
     100       0       0       1       0                               0D    454
     126     354       0       0       0                        01010500D    455
     126       0       0       2       0                               0D    456
     110     356       0       0       0                        01010000D    457
     110       0       0       1       0                               0D    458
     126     357       0       0       0                        01010500D    459
     126       0       0      11       0                               0D    460
     124     368       0       0       0                        00000000D    461
     124       0       0       2       0                               0D    462
     100     370       0       0       0             461        01010000D    463
     100       0       0       1       0                               0D    464
     126     371       0       0       0                        01010500D    465
     126       0       0       2       0                               0D    466
     110     373       0       0       0                        01010000D    467
     110       0       0       1       0                               0D    468
     102     374       0       0       0                        01010500D    469
     102       0       0       1       0                               0D    470
     102     375       0       0       0                        01010000D    471
     102       0       0       1       0                               0D    472
     142     376       0       0       0                        00010500D    473
     142       0       0       1       0                               0D    474
     144     377       0       0       0                        00000000D    475
     144       0      -1       1       0                               0D    476
     128     378       0       0       0                        01010000D    477
     128       0       0       2       0                               0D    478
     126     380       0       0       0                        01010500D    479
     126       0       0       2       0                               0D    480
     110     382       0       0       0                        01010000D    481
     110       0       0       1       0                               0D    482
     126     383       0       0       0                        01010500D    483
     126       0       0      11       0                               0D    484
     124     394       0       0       0                        00000000D    485
     124       0       0       2       0                               0D    486
     100     396       0       0       0             485        01010000D    487
     100       0       0       1       0                               0D    488
     126     397       0       0       0                        01010500D    489
     126       0       0       2       0                               0D    490
     110     399       0       0       0                        01010000D    491
     110       0       0       1       0                               0D    492
     126     400       0       0       0                        01010500D    493
     126       0       0      11       0                               0D    494
     124     411       0       0       0                        00000000D    495
     124       0       0       3       0                               0D    496
     100     414       0       0       0             495        01010000D    497
     100       0       0       1       0                               0D    498
     126     415       0       0       0                        01010500D    499
     126       0       0       2       0                               0D    500
     110     417       0       0       0                        01010000D    501
     110       0       0       1       0                               0D    502
     126     418       0       0       0                        01010500D    503
     126       0       0      11       0                               0D    504
     124     429       0       0       0                        00000000D    505
     124       0       0       4       0                               0D    506
     100     433       0       0       0             505        01010000D    507
     100       0       0       1       0                               0D    508
     126     434       0       0       0                        01010500D    509
     126       0       0       2       0                               0D    510
     110     436       0       0       0                        01010000D    511
     110       0       0       1       0                               0D    512
     126     437       0       0       0                        01010500D    513
     126       0       0      11       0                               0D    514
     124     448       0       0       0                        00000000D    515
     124       0       0       4       0                               0D    516
     100     452       0       0       0             515        01010000D    517
     100       0       0       1       0                               0D    518
     102     453       0       0       0                        01010500D    519
     102       0       0       1       0                               0D    520
     102     454       0       0       0                        01010000D    521
     102       0       0       1       0                               0D    522
     142     455       0       0       0                        00010500D    523
     142       0       0       1       0                               0D    524
     144     456       0       0       0                        00000000D    525
     144       0      -1       1       0                               0D    526
     128     457       0       0       0                        01010000D    527
     128       0       0       2       0                               0D    528
     126     459       0       0       0                        01010500D    529
     126       0       0       2       0                               0D    530
     110     461       0       0       0                        01010000D    531
     110       0       0       1       0                               0D    532
     126     462       0       0       0                        01010500D    533
     126       0       0       2       0                               0D    534
     110     464       0       0       0                        01010000D    535
     110       0       0       1       0                               0D    536
     126     465       0       0       0                        01010500D    537
     126       0       0       2       0                               0D    538
     110     467       0       0       0                        01010000D    539
     110       0       0       1       0                               0D    540
     126     468       0       0       0                        01010500D    541
     126       0       0       2       0                               0D    542
     110     470       0       0       0                        01010000D    543
     110       0       0       1       0                               0D    544
     102     471       0       0       0                        01010500D    545
     102       0       0       1       0                               0D    546
     102     472       0       0       0                        01010000D    547
     102       0       0       1       0                               0D    548
     142     473       0       0       0                        00010500D    549
     142       0       0       1       0                               0D    550
     144     474       0       0       0                        00000000D    551
     144       0      -1       1       0                               0D    552
     128     475       0       0       0                        01010000D    553
     128       0       0       2       0                               0D    554
     126     477       0       0       0                        01010500D    555
     126       0       0       2       0                               0D    556
     110     479       0       0       0                        01010000D    557
     110       0       0       1       0                               0D    558
     126     480       0       0       0                        01010500D    559
     126       0       0       2       0                               0D    560
     110     482       0       0       0                        01010000D    561
     110       0       0       1       0                               0D    562
     126     483       0       0       0                        01010500D    563
     126       0       0       2       0                               0D    564
     110     485       0       0       0                        01010000D    565
     110       0       0       1       0                               0D    566
     126     486       0       0       0                        01010500D    567
     126       0       0       2       0                               0D    568
     110     488       0       0       0                        01010000D    569
     110       0       0       1       0                               0D    570
     102     489       0       0       0                        01010500D    571
     102       0       0       1       0                               0D    572
     102     490       0       0       0                        01010000D    573
     102       0       0       1       0                               0D    574
     142     491       0       0       0                        00010500D    575
     142       0       0       1       0                               0D    576
     144     492       0       0       0                        00000000D    577
     144       0      -1       1       0                               0D    578
     128     493       0       0       0                        01010000D    579
     128       0       0       2       0                               0D    580
     126     495       0       0       0                        01010500D    581
     126       0       0       2       0                               0D    582
     110     497       0       0       0                        01010000D    583
     110       0       0       1       0                               0D    584
     126     498       0       0       0                        01010500D    585
     126       0       0       2       0                               0D    586
     110     500       0       0       0                        01010000D    587
     110       0       0       1       0                               0D    588
     126     501       0       0       0                        01010500D    589
     126       0       0       2       0                               0D    590
     110     503       0       0       0                        01010000D    591
     110       0       0       1       0                               0D    592
     126     504       0       0       0                        01010500D    593
     126       0       0       2       0                               0D    594
     110     506       0       0       0                        01010000D    595
     110       0       0       1       0                               0D    596
     102     507       0       0       0                        01010500D    597
     102       0       0       1       0                               0D    598
     102     508       0       0       0                        01010000D    599
     102       0       0       1       0                               0D    600
     142     509       0       0       0                        00010500D    601
     142       0       0       1       0                               0D    602
     144     510       0       0       0                        00000000D    603
     144       0      -1       1       0                               0D    604
     128     511       0       0       0                        01010000D    605
     128       0       0       2       0                               0D    606
     126     513       0       0       0                        01010500D    607
     126       0       0       2       0                               0D    608
     110     515       0       0       0                        01010000D    609
     110       0       0       1       0                               0D    610
     126     516       0       0       0                        01010500D    611
     126       0       0       2       0                               0D    612
     110     518       0       0       0                        01010000D    613
     110       0       0       1       0                               0D    614
     126     519       0       0       0                        01010500D    615
     126       0       0       2       0                               0D    616
     110     521       0       0       0                        01010000D    617
     110       0       0       1       0                               0D    618
     126     522       0       0       0                        01010500D    619
     126       0       0       2       0                               0D    620
     110     524       0       0       0                        01010000D    621
     110       0       0       1       0                               0D    622
     102     525       0       0       0                        01010500D    623
     102       0       0       1       0                               0D    624
     102     526       0       0       0                        01010000D    625
     102       0       0       1       0                               0D    626
     142     527       0       0       0                        00010500D    627
     142       0       0       1       0                               0D    628
     144     528       0       0       0                        00000000D    629
     144       0      -1       1       0                               0D    630
314,79.2156862745098,81.9607843137255,93.3333333333333,;               1P      1
110,78.,-2.,128.,78.,998.,128.;                                        3P      2
110,78.,-2.,130.,78.,0.,130.;                                          5P      3
120,3,5,0.,6.28318530717959;                                           7P      4
126,1,1,1,0,1,0,0.,0.,1.,1.,1.,1.,1.,0.,0.,0.,0.,0.,0.,1.,0.,          9P      5
0.,1.;                                                                 9P      6
110,78.,0.,130.,78.,-2.,130.;                                         11P      7
126,1,1,1,0,1,0,0.,0.,1.,1.,1.,1.,0.,0.,0.,0.,1.570796327,0.,         13P      8
0.,1.,0.,0.,1.;                                                       13P      9
124,1.40271576953299E-14,1.,0.,79.9999999999989,                      15P     10
-6.12323399573677E-17,8.58915688636046E-31,1.,-130.,1.,               15P     11
-1.40271576953299E-14,6.12323399573677E-17,50.;                       15P     12
100,128.,78.,-2.,80.,-2.,78.,0.;                                      17P     13
126,1,1,1,0,1,0,0.,0.,1.,1.,1.,1.,0.,1.570796327,0.,1.,               19P     14
1.570796327,0.,0.,1.,0.,0.,1.;                                        19P     15
110,80.,-2.,128.,80.,0.,128.;                                         21P     16
126,1,1,1,0,1,0,0.,0.,1.,1.,1.,1.,1.,1.570796327,0.,1.,0.,0.,         23P     17
0.,1.,0.,0.,1.;                                                       23P     18
124,1.,0.,0.,0.,0.,6.12323399573677E-17,-1.,128.,0.,1.,               25P     19
6.12323399573677E-17,128.;                                            25P     20
100,128.,78.,0.,80.,0.,78.,2.;                                        27P     21
102,4,9,13,19,23;                                                     29P     22
102,4,11,17,21,27;                                                    31P     23
142,1,7,29,31,1;                                                      33P     24
144,7,1,0,33;                                                         35P     25
110,-28.,-2.,128.,-28.,998.,128.;                                     37P     26
110,-28.,-2.,130.,-28.,0.,130.;                                       39P     27
120,37,39,0.,6.28318530717959;                                        41P     28
126,1,1,1,0,1,0,0.,0.,1.,1.,1.,1.,1.,4.71238898,0.,0.,                43P     29
4.71238898,0.,0.,1.,0.,0.,1.;                                         43P     30
110,-30.,0.,128.,-30.,-2.,128.;                                       45P     31
126,1,1,1,0,1,0,0.,0.,1.,1.,1.,1.,0.,4.71238898,0.,0.,                47P     32
6.283185307,0.,0.,1.,0.,0.,1.;                                        47P     33
124,-1.,6.98296267768627E-15,0.,-56.,-4.27583144589696E-31,           49P     34
-6.12323399573677E-17,1.,-130.,6.98296267768627E-15,1.,               49P     35
6.12323399573677E-17,130.;                                            49P     36
100,128.,-28.,-2.,-26.,-2.,-28.,0.;                                   51P     37
126,1,1,1,0,1,0,0.,0.,1.,1.,1.,1.,0.,6.283185307,0.,1.,               53P     38
6.283185307,0.,0.,1.,0.,0.,1.;                                        53P     39
110,-28.,-2.,130.,-28.,0.,130.;                                       55P     40
126,1,1,1,0,1,0,0.,0.,1.,1.,1.,1.,1.,6.283185307,0.,1.,               57P     41
4.71238898,0.,0.,1.,0.,0.,1.;                                         57P     42
124,-7.04419501764363E-15,-1.,0.,-28.0000000000002,                   59P     43
6.12323399573677E-17,-4.3133254404635E-31,-1.,128.,1.,                59P     44
-7.04419501764363E-15,6.12323399573677E-17,156.;                      59P     45
100,128.,-28.,0.,-26.,0.,-28.,2.;                                     61P     46
102,4,43,47,53,57;                                                    63P     47
102,4,45,51,55,61;                                                    65P     48
142,1,41,63,65,1;                                                     67P     49
144,41,1,0,67;                                                        69P     50
110,-28.,0.,2.,-28.,-1000.,2.;                                        71P     51
110,-28.,0.,0.,-28.,-2.,0.;                                           73P     52
120,71,73,0.,6.28318530717959;                                        75P     53
126,1,1,1,0,1,0,0.,0.,1.,1.,1.,1.,0.,6.283185307,0.,1.,               77P     54
6.283185307,0.,0.,1.,0.,0.,1.;                                        77P     55
110,-28.,0.,0.,-28.,-2.,0.;                                           79P     56
126,1,1,1,0,1,0,0.,0.,1.,1.,1.,1.,1.,6.283185307,0.,1.,               81P     57
4.71238898,0.,0.,1.,0.,0.,1.;                                         81P     58
124,6.12323399573677E-17,-1.,0.,-30.,6.12323399573677E-17,            83P     59
3.74939945665464E-33,1.,-4.,-1.,-6.12323399573677E-17,                83P     60
6.12323399573677E-17,-26.;                                            83P     61
100,2.,-28.,-2.,-26.,-2.,-28.,0.;                                     85P     62
126,1,1,1,0,1,0,0.,0.,1.,1.,1.,1.,1.,4.71238898,0.,0.,                87P     63
4.71238898,0.,0.,1.,0.,0.,1.;                                         87P     64
110,-30.,-2.,2.,-30.,0.,2.;                                           89P     65
126,1,1,1,0,1,0,0.,0.,1.,1.,1.,1.,0.,4.71238898,0.,0.,                91P     66
6.283185307,0.,0.,1.,0.,0.,1.;                                        91P     67
124,-1.,6.98296267768627E-15,0.,-56.,-4.27583144589696E-31,           93P     68
-6.12323399573677E-17,-1.,2.,-6.98296267768627E-15,-1.,               93P     69
6.12323399573677E-17,1.9999999999998;                                 93P     70
100,2.,-28.,0.,-26.,0.,-28.,2.;                                       95P     71
102,4,77,81,87,91;                                                    97P     72
102,4,79,85,89,95;                                                    99P     73
142,1,75,97,99,1;                                                    101P     74
144,75,1,0,101;                                                      103P     75
110,78.,-2.,2.,78.,-1002.,2.;                                        105P     76
110,78.,0.,0.,78.,-2.,0.;                                            107P     77
120,105,107,0.,6.28318530717959;                                     109P     78
126,1,1,1,0,1,0,0.,0.,1.,1.,1.,1.,0.,1.570796327,0.,1.,              111P     79
1.570796327,0.,0.,1.,0.,0.,1.;                                       111P     80
110,80.,0.,2.,80.,-2.,2.;                                            113P     81
126,1,1,1,0,1,0,0.,0.,1.,1.,1.,1.,1.,1.570796327,0.,1.,0.,0.,        115P     82
0.,1.,0.,0.,1.;                                                      115P     83
124,1.,0.,0.,0.,0.,6.12323399573677E-17,1.,-4.,0.,-1.,               117P     84
6.12323399573677E-17,-2.44929359829471E-16;                          117P     85
100,2.,78.,-2.,80.,-2.,78.,0.;                                       119P     86
126,1,1,1,0,1,0,0.,0.,1.,1.,1.,1.,1.,0.,0.,0.,0.,0.,0.,1.,0.,        121P     87
0.,1.;                                                               121P     88
110,78.,-2.,0.,78.,0.,0.;                                            123P     89
126,1,1,1,0,1,0,0.,0.,1.,1.,1.,1.,0.,0.,0.,0.,1.570796327,0.,        125P     90
0.,1.,0.,0.,1.;                                                      125P     91
124,1.40271576953299E-14,1.,0.,77.9999999999989,                     127P     92
-6.12323399573677E-17,8.58915688636046E-31,-1.,2.,-1.,               127P     93
1.40271576953299E-14,6.12323399573677E-17,80.;                       127P     94
100,2.,78.,0.,80.,0.,78.,2.;                                         129P     95
102,4,111,115,121,125;                                               131P     96
102,4,113,119,123,129;                                               133P     97
142,1,109,131,133,1;                                                 135P     98
144,109,1,0,135;                                                     137P     99
128,1,1,1,1,0,0,1,0,0,0.,0.,1.,1.,0.,0.,1.,1.,1.,1.,1.,1.,0.,        139P    100
0.,30.,0.,0.,0.,0.,1030.,30.,0.,1030.,0.,0.,1.,0.,1.;                139P    101
126,1,1,1,0,1,0,0.,0.,1.,1.,1.,1.,1.,1.,0.,0.,1.,0.,0.,1.,0.,        141P    102
0.,1.;                                                               141P    103
110,0.,1030.,0.,0.,1030.,30.;                                        143P    104
126,1,1,1,0,1,0,0.,0.,1.,1.,1.,1.,0.,1.,0.,0.,0.,0.,0.,1.,0.,        145P    105
0.,1.;                                                               145P    106
110,0.,1030.,30.,0.,0.,30.;                                          147P    107
126,1,1,1,0,1,0,0.,0.,1.,1.,1.,1.,0.,0.,0.,1.,0.,0.,0.,1.,0.,        149P    108
0.,1.;                                                               149P    109
110,0.,0.,30.,0.,0.,0.;                                              151P    110
126,1,1,1,0,1,0,0.,0.,1.,1.,1.,1.,1.,0.,0.,1.,1.,0.,0.,1.,0.,        153P    111
0.,1.;                                                               153P    112
110,0.,0.,0.,0.,1030.,0.;                                            155P    113
102,4,141,145,149,153;                                               157P    114
102,4,143,147,151,155;                                               159P    115
142,1,139,157,159,1;                                                 161P    116
144,139,1,0,161;                                                     163P    117
128,1,1,1,1,0,0,1,0,0,0.,0.,1.,1.,0.,0.,1.,1.,1.,1.,1.,1.,50.,       165P    118
0.,0.,50.,0.,30.,50.,1030.,0.,50.,1030.,30.,0.,1.,0.,1.;             165P    119
126,1,1,1,0,1,0,0.,0.,1.,1.,1.,1.,0.,0.,0.,1.,0.,0.,0.,1.,0.,        167P    120
0.,1.;                                                               167P    121
110,50.,0.,0.,50.,0.,30.;                                            169P    122
126,1,1,1,0,1,0,0.,0.,1.,1.,1.,1.,1.,0.,0.,1.,1.,0.,0.,1.,0.,        171P    123
0.,1.;                                                               171P    124
110,50.,0.,30.,50.,1030.,30.;                                        173P    125
126,1,1,1,0,1,0,0.,0.,1.,1.,1.,1.,1.,1.,0.,0.,1.,0.,0.,1.,0.,        175P    126
0.,1.;                                                               175P    127
110,50.,1030.,30.,50.,1030.,0.;                                      177P    128
126,1,1,1,0,1,0,0.,0.,1.,1.,1.,1.,0.,1.,0.,0.,0.,0.,0.,1.,0.,        179P    129
0.,1.;                                                               179P    130
110,50.,1030.,0.,50.,0.,0.;                                          181P    131
102,4,167,171,175,179;                                               183P    132
102,4,169,173,177,181;                                               185P    133
142,1,165,183,185,1;                                                 187P    134
144,165,1,0,187;                                                     189P    135
128,1,1,1,1,0,0,1,0,0,0.,0.,1.,1.,0.,0.,1.,1.,1.,1.,1.,1.,0.,        191P    136
1030.,30.,0.,1030.,0.,50.,1030.,30.,50.,1030.,0.,0.,1.,0.,1.;        191P    137
126,1,1,1,0,1,0,0.,0.,1.,1.,1.,1.,1.,1.,0.,0.,1.,0.,0.,1.,0.,        193P    138
0.,1.;                                                               193P    139
110,50.,1030.,0.,50.,1030.,30.;                                      195P    140
126,1,1,1,0,1,0,0.,0.,1.,1.,1.,1.,0.,1.,0.,0.,0.,0.,0.,1.,0.,        197P    141
0.,1.;                                                               197P    142
110,50.,1030.,30.,0.,1030.,30.;                                      199P    143
126,1,1,1,0,1,0,0.,0.,1.,1.,1.,1.,0.,0.,0.,1.,0.,0.,0.,1.,0.,        201P    144
0.,1.;                                                               201P    145
110,0.,1030.,30.,0.,1030.,0.;                                        203P    146
126,1,1,1,0,1,0,0.,0.,1.,1.,1.,1.,1.,0.,0.,1.,1.,0.,0.,1.,0.,        205P    147
0.,1.;                                                               205P    148
110,0.,1030.,0.,50.,1030.,0.;                                        207P    149
102,4,193,197,201,205;                                               209P    150
102,4,195,199,203,207;                                               211P    151
142,1,191,209,211,1;                                                 213P    152
126,1,1,1,0,1,0,0.,0.,1.,1.,1.,1.,0.066666667,0.96,0.,               215P    153
0.933333333,0.96,0.,0.,1.,0.,0.,1.;                                  215P    154
110,48.,1030.,28.,48.,1030.,2.;                                      217P    155
126,1,1,1,0,1,0,0.,0.,1.,1.,1.,1.,0.933333333,0.96,0.,               219P    156
0.933333333,0.04,0.,0.,1.,0.,0.,1.;                                  219P    157
110,48.,1030.,2.,2.,1030.,2.;                                        221P    158
126,1,1,1,0,1,0,0.,0.,1.,1.,1.,1.,0.933333333,0.04,0.,               223P    159
0.066666667,0.04,0.,0.,1.,0.,0.,1.;                                  223P    160
110,2.,1030.,2.,2.,1030.,28.;                                        225P    161
126,1,1,1,0,1,0,0.,0.,1.,1.,1.,1.,0.066666667,0.04,0.,               227P    162
0.066666667,0.96,0.,0.,1.,0.,0.,1.;                                  227P    163
110,2.,1030.,28.,48.,1030.,28.;                                      229P    164
102,4,215,219,223,227;                                               231P    165
102,4,217,221,225,229;                                               233P    166
142,1,191,231,233,1;                                                 235P    167
144,191,1,1,213,235;                                                 237P    168
128,1,1,1,1,0,0,1,0,0,0.,0.,1.,1.,0.,0.,1.,1.,1.,1.,1.,1.,50.,       239P    169
0.,30.,0.,0.,30.,50.,1030.,30.,0.,1030.,30.,0.,1.,0.,1.;             239P    170
126,1,1,1,0,1,0,0.,0.,1.,1.,1.,1.,1.,1.,0.,0.,1.,0.,0.,1.,0.,        241P    171
0.,1.;                                                               241P    172
110,0.,1030.,30.,50.,1030.,30.;                                      243P    173
126,1,1,1,0,1,0,0.,0.,1.,1.,1.,1.,0.,1.,0.,0.,0.,0.,0.,1.,0.,        245P    174
0.,1.;                                                               245P    175
110,50.,1030.,30.,50.,0.,30.;                                        247P    176
126,1,1,1,0,1,0,0.,0.,1.,1.,1.,1.,0.,0.,0.,1.,0.,0.,0.,1.,0.,        249P    177
0.,1.;                                                               249P    178
110,50.,0.,30.,0.,0.,30.;                                            251P    179
126,1,1,1,0,1,0,0.,0.,1.,1.,1.,1.,1.,0.,0.,1.,1.,0.,0.,1.,0.,        253P    180
0.,1.;                                                               253P    181
110,0.,0.,30.,0.,1030.,30.;                                          255P    182
102,4,241,245,249,253;                                               257P    183
102,4,243,247,251,255;                                               259P    184
142,1,239,257,259,1;                                                 261P    185
144,239,1,0,261;                                                     263P    186
128,1,1,1,1,0,0,1,0,0,0.,0.,1.,1.,0.,0.,1.,1.,1.,1.,1.,1.,78.,       265P    187
-2.,0.,-28.,-2.,0.,78.,1030.,0.,-28.,1030.,0.,0.,1.,0.,1.;           265P    188
126,1,1,1,0,1,0,0.,0.,1.,1.,1.,1.,0.,0.,0.,1.,0.,0.,0.,1.,0.,        267P    189
0.,1.;                                                               267P    190
110,78.,-2.,0.,-28.,-2.,0.;                                          269P    191
126,1,1,1,0,1,0,0.,0.,1.,1.,1.,1.,1.,0.,0.,1.,0.001937984,0.,        271P    192
0.,1.,0.,0.,1.;                                                      271P    193
110,-28.,-2.,0.,-28.,0.,0.;                                          273P    194
126,1,1,1,0,1,0,0.,0.,1.,1.,1.,1.,1.,0.001937984,0.,                 275P    195
0.735849057,0.001937984,0.,0.,1.,0.,0.,1.;                           275P    196
110,-28.,0.,0.,0.,0.,0.;                                             277P    197
126,1,1,1,0,1,0,0.,0.,1.,1.,1.,1.,0.735849057,0.001937984,0.,        279P    198
0.735849057,1.,0.,0.,1.,0.,0.,1.;                                    279P    199
110,0.,0.,0.,0.,1030.,0.;                                            281P    200
126,1,1,1,0,1,0,0.,0.,1.,1.,1.,1.,0.735849057,1.,0.,                 283P    201
0.264150943,1.,0.,0.,1.,0.,0.,1.;                                    283P    202
110,0.,1030.,0.,50.,1030.,0.;                                        285P    203
126,1,1,1,0,1,0,0.,0.,1.,1.,1.,1.,0.264150943,1.,0.,                 287P    204
0.264150943,0.001937984,0.,0.,1.,0.,0.,1.;                           287P    205
110,50.,1030.,0.,50.,0.,0.;                                          289P    206
126,1,1,1,0,1,0,0.,0.,1.,1.,1.,1.,0.264150943,0.001937984,0.,        291P    207
0.,0.001937984,0.,0.,1.,0.,0.,1.;                                    291P    208
110,50.,0.,0.,78.,0.,0.;                                             293P    209
126,1,1,1,0,1,0,0.,0.,1.,1.,1.,1.,0.,0.001937984,0.,0.,0.,0.,        295P    210
0.,1.,0.,0.,1.;                                                      295P    211
110,78.,0.,0.,78.,-2.,0.;                                            297P    212
102,8,267,271,275,279,283,287,291,295;                               299P    213
102,8,269,273,277,281,285,289,293,297;                               301P    214
142,1,265,299,301,1;                                                 303P    215
144,265,1,0,303;                                                     305P    216
128,1,1,1,1,0,0,1,0,0,0.,0.,1.,1.,0.,0.,1.,1.,1.,1.,1.,1.,2.,        307P    217
0.,2.,2.,0.,28.,2.,1030.,2.,2.,1030.,28.,0.,1.,0.,1.;                307P    218
126,1,1,1,0,1,0,0.,0.,1.,1.,1.,1.,0.,1.,0.,0.,0.,0.,0.,1.,0.,        309P    219
0.,1.;                                                               309P    220
110,2.,1030.,2.,2.,0.,2.;                                            311P    221
126,1,1,1,0,1,0,0.,0.,1.,1.,1.,1.,0.,0.,0.,1.,0.,0.,0.,1.,0.,        313P    222
0.,1.;                                                               313P    223
110,2.,0.,2.,2.,0.,28.;                                              315P    224
126,1,1,1,0,1,0,0.,0.,1.,1.,1.,1.,1.,0.,0.,1.,1.,0.,0.,1.,0.,        317P    225
0.,1.;                                                               317P    226
110,2.,0.,28.,2.,1030.,28.;                                          319P    227
126,1,1,1,0,1,0,0.,0.,1.,1.,1.,1.,1.,1.,0.,0.,1.,0.,0.,1.,0.,        321P    228
0.,1.;                                                               321P    229
110,2.,1030.,28.,2.,1030.,2.;                                        323P    230
102,4,309,313,317,321;                                               325P    231
102,4,311,315,319,323;                                               327P    232
142,1,307,325,327,1;                                                 329P    233
144,307,1,0,329;                                                     331P    234
128,1,1,1,1,0,0,1,0,0,0.,0.,1.,1.,0.,0.,1.,1.,1.,1.,1.,1.,48.,       333P    235
0.,2.,2.,0.,2.,48.,1030.,2.,2.,1030.,2.,0.,1.,0.,1.;                 333P    236
126,1,1,1,0,1,0,0.,0.,1.,1.,1.,1.,0.,1.,0.,0.,0.,0.,0.,1.,0.,        335P    237
0.,1.;                                                               335P    238
110,48.,1030.,2.,48.,0.,2.;                                          337P    239
126,1,1,1,0,1,0,0.,0.,1.,1.,1.,1.,0.,0.,0.,1.,0.,0.,0.,1.,0.,        339P    240
0.,1.;                                                               339P    241
110,48.,0.,2.,2.,0.,2.;                                              341P    242
126,1,1,1,0,1,0,0.,0.,1.,1.,1.,1.,1.,0.,0.,1.,1.,0.,0.,1.,0.,        343P    243
0.,1.;                                                               343P    244
110,2.,0.,2.,2.,1030.,2.;                                            345P    245
126,1,1,1,0,1,0,0.,0.,1.,1.,1.,1.,1.,1.,0.,0.,1.,0.,0.,1.,0.,        347P    246
0.,1.;                                                               347P    247
110,2.,1030.,2.,48.,1030.,2.;                                        349P    248
102,4,335,339,343,347;                                               351P    249
102,4,337,341,345,349;                                               353P    250
142,1,333,351,353,1;                                                 355P    251
144,333,1,0,355;                                                     357P    252
128,1,1,1,1,0,0,1,0,0,0.,0.,1.,1.,0.,0.,1.,1.,1.,1.,1.,1.,48.,       359P    253
0.,28.,48.,0.,2.,48.,1030.,28.,48.,1030.,2.,0.,1.,0.,1.;             359P    254
126,1,1,1,0,1,0,0.,0.,1.,1.,1.,1.,0.,1.,0.,0.,0.,0.,0.,1.,0.,        361P    255
0.,1.;                                                               361P    256
110,48.,1030.,28.,48.,0.,28.;                                        363P    257
126,1,1,1,0,1,0,0.,0.,1.,1.,1.,1.,0.,0.,0.,1.,0.,0.,0.,1.,0.,        365P    258
0.,1.;                                                               365P    259
110,48.,0.,28.,48.,0.,2.;                                            367P    260
126,1,1,1,0,1,0,0.,0.,1.,1.,1.,1.,1.,0.,0.,1.,1.,0.,0.,1.,0.,        369P    261
0.,1.;                                                               369P    262
110,48.,0.,2.,48.,1030.,2.;                                          371P    263
126,1,1,1,0,1,0,0.,0.,1.,1.,1.,1.,1.,1.,0.,0.,1.,0.,0.,1.,0.,        373P    264
0.,1.;                                                               373P    265
110,48.,1030.,2.,48.,1030.,28.;                                      375P    266
102,4,361,365,369,373;                                               377P    267
102,4,363,367,371,375;                                               379P    268
142,1,359,377,379,1;                                                 381P    269
144,359,1,0,381;                                                     383P    270
128,1,1,1,1,0,0,1,0,0,0.,0.,1.,1.,0.,0.,1.,1.,1.,1.,1.,1.,2.,        385P    271
0.,28.,48.,0.,28.,2.,1030.,28.,48.,1030.,28.,0.,1.,0.,1.;            385P    272
126,1,1,1,0,1,0,0.,0.,1.,1.,1.,1.,0.,1.,0.,0.,0.,0.,0.,1.,0.,        387P    273
0.,1.;                                                               387P    274
110,2.,1030.,28.,2.,0.,28.;                                          389P    275
126,1,1,1,0,1,0,0.,0.,1.,1.,1.,1.,0.,0.,0.,1.,0.,0.,0.,1.,0.,        391P    276
0.,1.;                                                               391P    277
110,2.,0.,28.,48.,0.,28.;                                            393P    278
126,1,1,1,0,1,0,0.,0.,1.,1.,1.,1.,1.,0.,0.,1.,1.,0.,0.,1.,0.,        395P    279
0.,1.;                                                               395P    280
110,48.,0.,28.,48.,1030.,28.;                                        397P    281
126,1,1,1,0,1,0,0.,0.,1.,1.,1.,1.,1.,1.,0.,0.,1.,0.,0.,1.,0.,        399P    282
0.,1.;                                                               399P    283
110,48.,1030.,28.,2.,1030.,28.;                                      401P    284
102,4,387,391,395,399;                                               403P    285
102,4,389,393,397,401;                                               405P    286
142,1,385,403,405,1;                                                 407P    287
144,385,1,0,407;                                                     409P    288
128,1,1,1,1,0,0,1,0,0,0.,0.,1.,1.,0.,0.,1.,1.,1.,1.,1.,1.,-30.,      411P    289
0.,130.,-30.,0.,0.,80.,0.,130.,80.,0.,0.,0.,1.,0.,1.;                411P    290
126,16,2,1,0,1,0,0.,0.,0.,0.125,0.125,0.25,0.25,0.375,0.375,         413P    291
0.5,0.5,0.625,0.625,0.75,0.75,0.875,0.875,1.,1.,1.,1.,1.,1.,1.,      413P    292
1.,1.,1.,1.,1.,1.,1.,1.,1.,1.,1.,1.,1.,0.,0.018181818,0.,0.,         413P    293
0.016391065,0.,0.000295611,0.014634721,0.,0.000591222,               413P    294
0.012878377,0.,0.001171084,0.011223938,0.,0.001750946,               413P    295
0.009569498,0.,0.002592775,0.008080541,0.,0.003434604,               413P    296
0.006591585,0.,0.00450605,0.005325331,0.,0.005577495,                413P    297
0.004059078,0.,0.006837381,0.003064189,0.,0.008097267,               413P    298
0.0020693,0.,0.009497178,0.001384008,0.,0.010897089,                 413P    299
0.000698717,0.,0.012383226,0.000349359,0.,0.013869363,0.,0.,         413P    300
0.015384615,0.,0.,0.,1.,0.,0.,-1.;                                   413P    301
124,-7.04419501764363E-15,-1.,0.,-28.0000000000002,                  415P    302
6.12323399573677E-17,-4.3133254404635E-31,-1.,128.,1.,               415P    303
-7.04419501764363E-15,6.12323399573677E-17,156.;                     415P    304
100,128.,-28.,0.,-26.,0.,-28.,2.;                                    417P    305
126,1,1,1,0,1,0,0.,0.,1.,1.,1.,1.,0.015384615,0.,0.,                 419P    306
0.984615385,0.,0.,0.,1.,0.,0.,1.;                                    419P    307
110,-30.,0.,128.,-30.,0.,2.;                                         421P    308
126,16,2,1,0,1,0,0.,0.,0.,0.125,0.125,0.25,0.25,0.375,0.375,         423P    309
0.5,0.5,0.625,0.625,0.75,0.75,0.875,0.875,1.,1.,1.,1.,1.,1.,1.,      423P    310
1.,1.,1.,1.,1.,1.,1.,1.,1.,1.,1.,1.,1.,0.984615385,0.,0.,            423P    311
0.986130637,0.,0.,0.987616774,0.000349359,0.,0.989102911,            423P    312
0.000698717,0.,0.990502822,0.001384008,0.,0.991902733,               423P    313
0.0020693,0.,0.993162619,0.003064189,0.,0.994422505,                 423P    314
0.004059078,0.,0.99549395,0.005325331,0.,0.996565396,                423P    315
0.006591585,0.,0.997407225,0.008080541,0.,0.998249054,               423P    316
0.009569498,0.,0.998828916,0.011223938,0.,0.999408778,               423P    317
0.012878377,0.,0.999704389,0.014634721,0.,1.,0.016391065,0.,1.,      423P    318
0.018181818,0.,0.,1.,0.,0.,-1.;                                      423P    319
124,-1.,6.98296267768627E-15,0.,-56.,-4.27583144589696E-31,          425P    320
-6.12323399573677E-17,-1.,2.,-6.98296267768627E-15,-1.,              425P    321
6.12323399573677E-17,1.9999999999998;                                425P    322
100,2.,-28.,0.,-26.,0.,-28.,2.;                                      427P    323
126,1,1,1,0,1,0,0.,0.,1.,1.,1.,1.,1.,0.018181818,0.,1.,              429P    324
0.272727273,0.,0.,1.,0.,0.,1.;                                       429P    325
110,-28.,0.,0.,0.,0.,0.;                                             431P    326
126,1,1,1,0,1,0,0.,0.,1.,1.,1.,1.,1.,0.272727273,0.,                 433P    327
0.769230769,0.272727273,0.,0.,1.,0.,0.,1.;                           433P    328
110,0.,0.,0.,0.,0.,30.;                                              435P    329
126,1,1,1,0,1,0,0.,0.,1.,1.,1.,1.,0.769230769,0.272727273,0.,        437P    330
0.769230769,0.727272727,0.,0.,1.,0.,0.,1.;                           437P    331
110,0.,0.,30.,50.,0.,30.;                                            439P    332
126,1,1,1,0,1,0,0.,0.,1.,1.,1.,1.,0.769230769,0.727272727,0.,        441P    333
1.,0.727272727,0.,0.,1.,0.,0.,1.;                                    441P    334
110,50.,0.,30.,50.,0.,0.;                                            443P    335
126,1,1,1,0,1,0,0.,0.,1.,1.,1.,1.,1.,0.727272727,0.,1.,              445P    336
0.981818182,0.,0.,1.,0.,0.,1.;                                       445P    337
110,50.,0.,0.,78.,0.,0.;                                             447P    338
126,16,2,1,0,1,0,0.,0.,0.,0.125,0.125,0.25,0.25,0.375,0.375,         449P    339
0.5,0.5,0.625,0.625,0.75,0.75,0.875,0.875,1.,1.,1.,1.,1.,1.,1.,      449P    340
1.,1.,1.,1.,1.,1.,1.,1.,1.,1.,1.,1.,1.,1.,0.981818182,0.,1.,         449P    341
0.983608935,0.,0.999704389,0.985365279,0.,0.999408778,               449P    342
0.987121623,0.,0.998828916,0.988776062,0.,0.998249054,               449P    343
0.990430502,0.,0.997407225,0.991919459,0.,0.996565396,               449P    344
0.993408415,0.,0.99549395,0.994674669,0.,0.994422505,                449P    345
0.995940922,0.,0.993162619,0.996935811,0.,0.991902733,               449P    346
0.9979307,0.,0.990502822,0.998615992,0.,0.989102911,                 449P    347
0.999301283,0.,0.987616774,0.999650641,0.,0.986130637,1.,0.,         449P    348
0.984615385,1.,0.,0.,1.,0.,0.,-1.;                                   449P    349
124,1.40271576953299E-14,1.,0.,77.9999999999989,                     451P    350
-6.12323399573677E-17,8.58915688636046E-31,-1.,2.,-1.,               451P    351
1.40271576953299E-14,6.12323399573677E-17,80.;                       451P    352
100,2.,78.,0.,80.,0.,78.,2.;                                         453P    353
126,1,1,1,0,1,0,0.,0.,1.,1.,1.,1.,0.984615385,1.,0.,                 455P    354
0.015384615,1.,0.,0.,1.,0.,0.,1.;                                    455P    355
110,80.,0.,2.,80.,0.,128.;                                           457P    356
126,16,2,1,0,1,0,0.,0.,0.,0.125,0.125,0.25,0.25,0.375,0.375,         459P    357
0.5,0.5,0.625,0.625,0.75,0.75,0.875,0.875,1.,1.,1.,1.,1.,1.,1.,      459P    358
1.,1.,1.,1.,1.,1.,1.,1.,1.,1.,1.,1.,1.,0.015384615,1.,0.,            459P    359
0.013869363,1.,0.,0.012383226,0.999650641,0.,0.010897089,            459P    360
0.999301283,0.,0.009497178,0.998615992,0.,0.008097267,               459P    361
0.9979307,0.,0.006837381,0.996935811,0.,0.005577495,                 459P    362
0.995940922,0.,0.00450605,0.994674669,0.,0.003434604,                459P    363
0.993408415,0.,0.002592775,0.991919459,0.,0.001750946,               459P    364
0.990430502,0.,0.001171084,0.988776062,0.,0.000591222,               459P    365
0.987121623,0.,0.000295611,0.985365279,0.,0.,0.983608935,0.,0.,      459P    366
0.981818182,0.,0.,1.,0.,0.,-1.;                                      459P    367
124,1.,0.,0.,0.,0.,6.12323399573677E-17,-1.,128.,0.,1.,              461P    368
6.12323399573677E-17,128.;                                           461P    369
100,128.,78.,0.,80.,0.,78.,2.;                                       463P    370
126,1,1,1,0,1,0,0.,0.,1.,1.,1.,1.,0.,0.981818182,0.,0.,              465P    371
0.018181818,0.,0.,1.,0.,0.,1.;                                       465P    372
110,78.,0.,130.,-28.,0.,130.;                                        467P    373
102,12,413,419,423,429,433,437,441,445,449,455,459,465;              469P    374
102,12,417,421,427,431,435,439,443,447,453,457,463,467;              471P    375
142,1,411,469,471,1;                                                 473P    376
144,411,1,0,473;                                                     475P    377
128,1,1,1,1,0,0,1,0,0,0.,0.,1.,1.,0.,0.,1.,1.,1.,1.,1.,1.,-30.,      477P    378
-2.,130.,-30.,-2.,0.,80.,-2.,130.,80.,-2.,0.,0.,1.,0.,1.;            477P    379
126,1,1,1,0,1,0,0.,0.,1.,1.,1.,1.,0.984615385,1.,0.,                 479P    380
0.015384615,1.,0.,0.,1.,0.,0.,1.;                                    479P    381
110,80.,-2.,2.,80.,-2.,128.;                                         481P    382
126,16,2,1,0,1,0,0.,0.,0.,0.125,0.125,0.25,0.25,0.375,0.375,         483P    383
0.5,0.5,0.625,0.625,0.75,0.75,0.875,0.875,1.,1.,1.,1.,1.,1.,1.,      483P    384
1.,1.,1.,1.,1.,1.,1.,1.,1.,1.,1.,1.,1.,0.015384615,1.,0.,            483P    385
0.013869363,1.,0.,0.012383226,0.999650641,0.,0.010897089,            483P    386
0.999301283,0.,0.009497178,0.998615992,0.,0.008097267,               483P    387
0.9979307,0.,0.006837381,0.996935811,0.,0.005577495,                 483P    388
0.995940922,0.,0.00450605,0.994674669,0.,0.003434604,                483P    389
0.993408415,0.,0.002592775,0.991919459,0.,0.001750946,               483P    390
0.990430502,0.,0.001171084,0.988776062,0.,0.000591222,               483P    391
0.987121623,0.,0.000295611,0.985365279,0.,0.,0.983608935,0.,0.,      483P    392
0.981818182,0.,0.,1.,0.,0.,-1.;                                      483P    393
124,1.,0.,0.,0.,0.,6.12323399573677E-17,-1.,126.,0.,1.,              485P    394
6.12323399573677E-17,130.;                                           485P    395
100,128.,78.,-2.,80.,-2.,78.,0.;                                     487P    396
126,1,1,1,0,1,0,0.,0.,1.,1.,1.,1.,0.,0.981818182,0.,0.,              489P    397
0.018181818,0.,0.,1.,0.,0.,1.;                                       489P    398
110,78.,-2.,130.,-28.,-2.,130.;                                      491P    399
126,16,2,1,0,1,0,0.,0.,0.,0.125,0.125,0.25,0.25,0.375,0.375,         493P    400
0.5,0.5,0.625,0.625,0.75,0.75,0.875,0.875,1.,1.,1.,1.,1.,1.,1.,      493P    401
1.,1.,1.,1.,1.,1.,1.,1.,1.,1.,1.,1.,1.,0.,0.018181818,0.,0.,         493P    402
0.016391065,0.,0.000295611,0.014634721,0.,0.000591222,               493P    403
0.012878377,0.,0.001171084,0.011223938,0.,0.001750946,               493P    404
0.009569498,0.,0.002592775,0.008080541,0.,0.003434604,               493P    405
0.006591585,0.,0.00450605,0.005325331,0.,0.005577495,                493P    406
0.004059078,0.,0.006837381,0.003064189,0.,0.008097267,               493P    407
0.0020693,0.,0.009497178,0.001384008,0.,0.010897089,                 493P    408
0.000698717,0.,0.012383226,0.000349359,0.,0.013869363,0.,0.,         493P    409
0.015384615,0.,0.,0.,1.,0.,0.,-1.;                                   493P    410
124,-7.04419501764363E-15,-1.,0.,-30.0000000000002,                  495P    411
6.12323399573677E-17,-4.3133254404635E-31,-1.,126.,1.,               495P    412
-7.04419501764363E-15,6.12323399573677E-17,156.;                     495P    413
100,128.,-28.,-2.,-26.,-2.,-28.,0.;                                  497P    414
126,1,1,1,0,1,0,0.,0.,1.,1.,1.,1.,0.015384615,0.,0.,                 499P    415
0.984615385,0.,0.,0.,1.,0.,0.,1.;                                    499P    416
110,-30.,-2.,128.,-30.,-2.,2.;                                       501P    417
126,16,2,1,0,1,0,0.,0.,0.,0.125,0.125,0.25,0.25,0.375,0.375,         503P    418
0.5,0.5,0.625,0.625,0.75,0.75,0.875,0.875,1.,1.,1.,1.,1.,1.,1.,      503P    419
1.,1.,1.,1.,1.,1.,1.,1.,1.,1.,1.,1.,1.,0.984615385,0.,0.,            503P    420
0.986130637,0.,0.,0.987616774,0.000349359,0.,0.989102911,            503P    421
0.000698717,0.,0.990502822,0.001384008,0.,0.991902733,               503P    422
0.0020693,0.,0.993162619,0.003064189,0.,0.994422505,                 503P    423
0.004059078,0.,0.99549395,0.005325331,0.,0.996565396,                503P    424
0.006591585,0.,0.997407225,0.008080541,0.,0.998249054,               503P    425
0.009569498,0.,0.998828916,0.011223938,0.,0.999408778,               503P    426
0.012878377,0.,0.999704389,0.014634721,0.,1.,0.016391065,0.,1.,      503P    427
0.018181818,0.,0.,1.,0.,0.,-1.;                                      503P    428
124,-1.,6.98296267768627E-15,0.,-56.,-4.27583144589696E-31,          505P    429
-6.12323399573677E-17,-1.,-1.19682183211529E-29,                     505P    430
-6.98296267768627E-15,-1.,6.12323399573677E-17,                      505P    431
-1.95455838034046E-13;                                               505P    432
100,2.,-28.,-2.,-26.,-2.,-28.,0.;                                    507P    433
126,1,1,1,0,1,0,0.,0.,1.,1.,1.,1.,1.,0.018181818,0.,1.,              509P    434
0.981818182,0.,0.,1.,0.,0.,1.;                                       509P    435
110,-28.,-2.,0.,78.,-2.,0.;                                          511P    436
126,16,2,1,0,1,0,0.,0.,0.,0.125,0.125,0.25,0.25,0.375,0.375,         513P    437
0.5,0.5,0.625,0.625,0.75,0.75,0.875,0.875,1.,1.,1.,1.,1.,1.,1.,      513P    438
1.,1.,1.,1.,1.,1.,1.,1.,1.,1.,1.,1.,1.,1.,0.981818182,0.,1.,         513P    439
0.983608935,0.,0.999704389,0.985365279,0.,0.999408778,               513P    440
0.987121623,0.,0.998828916,0.988776062,0.,0.998249054,               513P    441
0.990430502,0.,0.997407225,0.991919459,0.,0.996565396,               513P    442
0.993408415,0.,0.99549395,0.994674669,0.,0.994422505,                513P    443
0.995940922,0.,0.993162619,0.996935811,0.,0.991902733,               513P    444
0.9979307,0.,0.990502822,0.998615992,0.,0.989102911,                 513P    445
0.999301283,0.,0.987616774,0.999650641,0.,0.986130637,1.,0.,         513P    446
0.984615385,1.,0.,0.,1.,0.,0.,-1.;                                   513P    447
124,2.11325850529309E-14,1.,0.,79.9999999999983,                     515P    448
-6.12323399573677E-17,1.29399763213905E-30,-1.,                      515P    449
4.89858719658941E-15,-1.,2.11325850529309E-14,                       515P    450
6.12323399573677E-17,80.;                                            515P    451
100,2.,78.,-2.,80.,-2.,78.,0.;                                       517P    452
102,8,479,483,489,493,499,503,509,513;                               519P    453
102,8,481,487,491,497,501,507,511,517;                               521P    454
142,1,477,519,521,1;                                                 523P    455
144,477,1,0,523;                                                     525P    456
128,1,1,1,1,0,0,1,0,0,0.,0.,1.,1.,0.,0.,1.,1.,1.,1.,1.,1.,-30.,      527P    457
-2.,128.,-30.,-2.,2.,-30.,0.,128.,-30.,0.,2.,0.,1.,0.,1.;            527P    458
126,1,1,1,0,1,0,0.,0.,1.,1.,1.,1.,1.,0.,0.,1.,1.,0.,0.,1.,0.,        529P    459
0.,1.;                                                               529P    460
110,-30.,-2.,2.,-30.,0.,2.;                                          531P    461
126,1,1,1,0,1,0,0.,0.,1.,1.,1.,1.,1.,1.,0.,0.,1.,0.,0.,1.,0.,        533P    462
0.,1.;                                                               533P    463
110,-30.,0.,2.,-30.,0.,128.;                                         535P    464
126,1,1,1,0,1,0,0.,0.,1.,1.,1.,1.,0.,1.,0.,0.,0.,0.,0.,1.,0.,        537P    465
0.,1.;                                                               537P    466
110,-30.,0.,128.,-30.,-2.,128.;                                      539P    467
126,1,1,1,0,1,0,0.,0.,1.,1.,1.,1.,0.,0.,0.,1.,0.,0.,0.,1.,0.,        541P    468
0.,1.;                                                               541P    469
110,-30.,-2.,128.,-30.,-2.,2.;                                       543P    470
102,4,529,533,537,541;                                               545P    471
102,4,531,535,539,543;                                               547P    472
142,1,527,545,547,1;                                                 549P    473
144,527,1,0,549;                                                     551P    474
128,1,1,1,1,0,0,1,0,0,0.,0.,1.,1.,0.,0.,1.,1.,1.,1.,1.,1.,78.,       553P    475
-2.,130.,-28.,-2.,130.,78.,0.,130.,-28.,0.,130.,0.,1.,0.,1.;         553P    476
126,1,1,1,0,1,0,0.,0.,1.,1.,1.,1.,1.,0.,0.,1.,1.,0.,0.,1.,0.,        555P    477
0.,1.;                                                               555P    478
110,-28.,-2.,130.,-28.,0.,130.;                                      557P    479
126,1,1,1,0,1,0,0.,0.,1.,1.,1.,1.,1.,1.,0.,0.,1.,0.,0.,1.,0.,        559P    480
0.,1.;                                                               559P    481
110,-28.,0.,130.,78.,0.,130.;                                        561P    482
126,1,1,1,0,1,0,0.,0.,1.,1.,1.,1.,0.,1.,0.,0.,0.,0.,0.,1.,0.,        563P    483
0.,1.;                                                               563P    484
110,78.,0.,130.,78.,-2.,130.;                                        565P    485
126,1,1,1,0,1,0,0.,0.,1.,1.,1.,1.,0.,0.,0.,1.,0.,0.,0.,1.,0.,        567P    486
0.,1.;                                                               567P    487
110,78.,-2.,130.,-28.,-2.,130.;                                      569P    488
102,4,555,559,563,567;                                               571P    489
102,4,557,561,565,569;                                               573P    490
142,1,553,571,573,1;                                                 575P    491
144,553,1,0,575;                                                     577P    492
128,1,1,1,1,0,0,1,0,0,0.,0.,1.,1.,0.,0.,1.,1.,1.,1.,1.,1.,80.,       579P    493
-2.,2.,80.,-2.,128.,80.,0.,2.,80.,0.,128.,0.,1.,0.,1.;               579P    494
126,1,1,1,0,1,0,0.,0.,1.,1.,1.,1.,0.,1.,0.,0.,0.,0.,0.,1.,0.,        581P    495
0.,1.;                                                               581P    496
110,80.,0.,2.,80.,-2.,2.;                                            583P    497
126,1,1,1,0,1,0,0.,0.,1.,1.,1.,1.,0.,0.,0.,1.,0.,0.,0.,1.,0.,        585P    498
0.,1.;                                                               585P    499
110,80.,-2.,2.,80.,-2.,128.;                                         587P    500
126,1,1,1,0,1,0,0.,0.,1.,1.,1.,1.,1.,0.,0.,1.,1.,0.,0.,1.,0.,        589P    501
0.,1.;                                                               589P    502
110,80.,-2.,128.,80.,0.,128.;                                        591P    503
126,1,1,1,0,1,0,0.,0.,1.,1.,1.,1.,1.,1.,0.,0.,1.,0.,0.,1.,0.,        593P    504
0.,1.;                                                               593P    505
110,80.,0.,128.,80.,0.,2.;                                           595P    506
102,4,581,585,589,593;                                               597P    507
102,4,583,587,591,595;                                               599P    508
142,1,579,597,599,1;                                                 601P    509
144,579,1,0,601;                                                     603P    510
128,1,1,1,1,0,0,1,0,0,0.,0.,1.,1.,0.,0.,1.,1.,1.,1.,1.,1.,2.,        605P    511
0.,28.,2.,0.,2.,48.,0.,28.,48.,0.,2.,0.,1.,0.,1.;                    605P    512
126,1,1,1,0,1,0,0.,0.,1.,1.,1.,1.,0.,1.,0.,0.,0.,0.,0.,1.,0.,        607P    513
0.,1.;                                                               607P    514
110,48.,0.,28.,2.,0.,28.;                                            609P    515
126,1,1,1,0,1,0,0.,0.,1.,1.,1.,1.,0.,0.,0.,1.,0.,0.,0.,1.,0.,        611P    516
0.,1.;                                                               611P    517
110,2.,0.,28.,2.,0.,2.;                                              613P    518
126,1,1,1,0,1,0,0.,0.,1.,1.,1.,1.,1.,0.,0.,1.,1.,0.,0.,1.,0.,        615P    519
0.,1.;                                                               615P    520
110,2.,0.,2.,48.,0.,2.;                                              617P    521
126,1,1,1,0,1,0,0.,0.,1.,1.,1.,1.,1.,1.,0.,0.,1.,0.,0.,1.,0.,        619P    522
0.,1.;                                                               619P    523
110,48.,0.,2.,48.,0.,28.;                                            621P    524
102,4,607,611,615,619;                                               623P    525
102,4,609,613,617,621;                                               625P    526
142,1,605,623,625,1;                                                 627P    527
144,605,1,0,627;                                                     629P    528
S      1G      4D    630P    528                                        T      1
